<mxfile host="app.diagrams.net" agent="Mozilla/5.0 (Windows NT 10.0; Win64; x64) AppleWebKit/537.36 (KHTML, like Gecko) Chrome/131.0.0.0 Safari/537.36" version="26.0.6">
  <diagram name="Page-1" id="I2qLYoOAgF9NZvz4b93l">
    <mxGraphModel dx="2049" dy="1103" grid="1" gridSize="10" guides="1" tooltips="1" connect="1" arrows="1" fold="1" page="1" pageScale="1" pageWidth="850" pageHeight="1100" math="0" shadow="0">
      <root>
        <mxCell id="0" />
        <mxCell id="1" parent="0" />
        <mxCell id="3W9DJeWFI1pCns-EvpjI-8" value="&lt;font style=&quot;font-size: 16px;&quot;&gt;&lt;b style=&quot;&quot;&gt;Etapa 1:&lt;br&gt;&lt;/b&gt;&lt;br&gt;Descrição dos casos de uso, restrições e suposições.&lt;/font&gt;" style="rounded=0;whiteSpace=wrap;html=1;align=center;" vertex="1" parent="1">
          <mxGeometry x="20" y="20" width="270" height="120" as="geometry" />
        </mxCell>
        <mxCell id="3W9DJeWFI1pCns-EvpjI-9" value="&lt;font style=&quot;font-size: 16px;&quot;&gt;&lt;b style=&quot;&quot;&gt;Etapa 2:&lt;/b&gt;&lt;br&gt;&lt;br&gt;Criação de um design de alto nível, contendo os principais componentes sem se apegar tanto aos detalhes.&lt;/font&gt;" style="rounded=0;whiteSpace=wrap;html=1;" vertex="1" parent="1">
          <mxGeometry x="560" y="20" width="270" height="120" as="geometry" />
        </mxCell>
        <mxCell id="3W9DJeWFI1pCns-EvpjI-10" value="&lt;font style=&quot;font-size: 16px;&quot;&gt;&lt;b style=&quot;&quot;&gt;Etapa 3:&lt;/b&gt;&lt;br&gt;&lt;br&gt;Projeção dos componentes principais, mergulhando nos detalhes de cada um deles.&lt;/font&gt;" style="rounded=0;whiteSpace=wrap;html=1;" vertex="1" parent="1">
          <mxGeometry x="20" y="970" width="270" height="120" as="geometry" />
        </mxCell>
        <mxCell id="3W9DJeWFI1pCns-EvpjI-11" value="&lt;font style=&quot;font-size: 16px;&quot;&gt;&lt;b style=&quot;&quot;&gt;Etapa 4:&lt;/b&gt;&lt;br&gt;&lt;br&gt;Identificação dos gargalos e potenciais trade offs.&lt;/font&gt;" style="rounded=0;whiteSpace=wrap;html=1;" vertex="1" parent="1">
          <mxGeometry x="560" y="970" width="270" height="120" as="geometry" />
        </mxCell>
        <mxCell id="3W9DJeWFI1pCns-EvpjI-13" style="edgeStyle=orthogonalEdgeStyle;rounded=0;orthogonalLoop=1;jettySize=auto;html=1;" edge="1" parent="1" source="3W9DJeWFI1pCns-EvpjI-12">
          <mxGeometry relative="1" as="geometry">
            <mxPoint x="390" y="460" as="targetPoint" />
          </mxGeometry>
        </mxCell>
        <mxCell id="3W9DJeWFI1pCns-EvpjI-12" value="Client" style="rounded=0;whiteSpace=wrap;html=1;" vertex="1" parent="1">
          <mxGeometry x="80" y="430" width="120" height="60" as="geometry" />
        </mxCell>
        <mxCell id="3W9DJeWFI1pCns-EvpjI-15" style="edgeStyle=orthogonalEdgeStyle;rounded=0;orthogonalLoop=1;jettySize=auto;html=1;" edge="1" parent="1" source="3W9DJeWFI1pCns-EvpjI-14">
          <mxGeometry relative="1" as="geometry">
            <mxPoint x="630" y="460" as="targetPoint" />
          </mxGeometry>
        </mxCell>
        <mxCell id="3W9DJeWFI1pCns-EvpjI-14" value="Server" style="rounded=0;whiteSpace=wrap;html=1;" vertex="1" parent="1">
          <mxGeometry x="390" y="430" width="120" height="60" as="geometry" />
        </mxCell>
        <mxCell id="3W9DJeWFI1pCns-EvpjI-16" value="DB" style="rounded=0;whiteSpace=wrap;html=1;" vertex="1" parent="1">
          <mxGeometry x="635" y="430" width="120" height="60" as="geometry" />
        </mxCell>
      </root>
    </mxGraphModel>
  </diagram>
</mxfile>
